<?xml version="1.0" encoding="utf-8"?>
<!-- Generator: Adobe Illustrator 19.0.0, SVG Export Plug-In . SVG Version: 6.00 Build 0)  -->
<svg version="1.1" id="Camada_1" xmlns="http://www.w3.org/2000/svg" xmlns:xlink="http://www.w3.org/1999/xlink" x="0px" y="0px"
	 viewBox="0 0 365.5 80.5" style="enable-background:new 0 0 365.5 80.5;" xml:space="preserve">
<style type="text/css">
	.st0{fill:#FFFFFF;}
</style>
<g id="XMLID_60_">
	<g id="XMLID_17_">
		<path id="XMLID_4_" class="st0" d="M37.9,47.5H19.3l-6.8,13.7H0L30.1,3.5h14.7l5.8,57.7H38.9L37.9,47.5z M37.3,37.2l-1-13.8
			c-0.3-3.4-0.4-6.7-0.4-9.9v-1.4c-1.2,3.1-2.6,6.5-4.3,10l-7.4,15.1H37.3z"/>
		<path id="XMLID_7_" class="st0" d="M75.5,52.4c1.7,0,3.8-0.5,6.4-1.4v8.8c-2.9,1.4-6.4,2.1-10.5,2.1c-3.9,0-6.8-0.8-8.7-2.5
			C61,57.8,60,55.2,60,51.8c0-1.3,0.2-2.8,0.5-4.4L65,26.2h-6l1.1-5.8l7.7-3.3l5.2-9.3h7.6l-1.9,9.3h11.1l-2,9H76.8l-4.5,21.2
			c-0.2,0.8-0.2,1.5-0.2,2.1C72.1,51.4,73.2,52.4,75.5,52.4z"/>
		<path id="XMLID_9_" class="st0" d="M101.6,61.1H89.8l13-61.1h11.8L101.6,61.1z"/>
		<path id="XMLID_11_" class="st0" d="M128.2,61.9c-3.8,0-6.9-1.4-9.1-4.2c-2.2-2.8-3.3-6.7-3.3-11.7c0-5.2,0.9-10.1,2.8-14.8
			s4.4-8.3,7.4-10.9c3.1-2.6,6.4-3.9,10.1-3.9c2.5,0,4.7,0.5,6.6,1.7c1.8,1.1,3.3,2.7,4.3,4.8h0.3l2.2-5.6h9.1l-9.3,43.9h-9l0.5-5.7
			h-0.2C137.2,59.8,133,61.9,128.2,61.9z M132.8,52.4c1.8,0,3.5-0.9,5.2-2.6c1.7-1.8,3-4.1,4-7.1s1.5-6.4,1.5-10.2
			c0-1.9-0.5-3.4-1.5-4.6c-1-1.2-2.3-1.8-4-1.8c-1.8,0-3.5,0.9-5.1,2.8c-1.6,1.9-2.9,4.4-3.8,7.5c-1,3.1-1.4,6.2-1.4,9.2
			c0,2.3,0.4,4,1.3,5.2C129.9,51.8,131.2,52.4,132.8,52.4z"/>
		<path id="XMLID_14_" class="st0" d="M192.6,46.6c0,4.9-1.6,8.7-4.9,11.3c-3.3,2.6-7.8,3.9-13.6,3.9c-2.8,0-5.2-0.2-7.3-0.6
			s-4-1-5.8-2v-9.7c4.1,2.4,8.3,3.5,12.5,3.5c2.1,0,3.8-0.4,5.1-1.3c1.3-0.9,2-2,2-3.5c0-1.1-0.5-2.1-1.5-3c-1-0.9-2.7-2-5.1-3.4
			c-3.2-1.8-5.4-3.6-6.6-5.3c-1.3-1.8-1.9-3.9-1.9-6.3c0-4.5,1.4-7.9,4.3-10.4c2.9-2.4,7-3.7,12.4-3.7c5.3,0,10,1.2,14.3,3.7
			l-3.9,8.4c-3.7-2.2-7-3.3-10.1-3.3c-1.5,0-2.7,0.3-3.6,1c-0.9,0.7-1.4,1.6-1.4,2.7c0,1,0.4,1.9,1.3,2.7c0.8,0.8,2.4,1.7,4.7,2.9
			c3.2,1.7,5.6,3.4,7,5.4C191.9,41.9,192.6,44.1,192.6,46.6z"/>
		<path id="XMLID_28_" class="st0" d="M231,46.6l21.6-42.9h16.6l-12.1,57.4h-11l5.7-27.2c1.4-6.5,2.8-12.2,4.1-17.3h-0.2l-22.4,44.5
			h-11L220,16.6h-0.2c-0.3,2.3-0.8,5.3-1.5,9.1s-3.2,15.6-7.3,35.4h-10.8l12.1-57.4h15.9l2.7,42.9H231z"/>
		<path id="XMLID_33_" class="st0" d="M312.4,80.5c-2.7,0-5-0.3-6.8-1V70c1.6,0.5,3.1,0.8,4.5,0.8c3.6,0,5.9-2.2,6.8-6.7l9.9-46.9
			h11.9l-10.4,48.7C326.2,75.6,321,80.5,312.4,80.5z M328.7,6.9c0-2.3,0.6-4,1.9-5.2c1.2-1.2,3-1.7,5.3-1.7c1.9,0,3.4,0.4,4.4,1.2
			c1,0.8,1.5,2,1.5,3.5c0,2.1-0.6,3.8-1.7,5.1c-1.2,1.3-2.9,1.9-5.3,1.9C330.7,11.7,328.7,10.1,328.7,6.9z"/>
		<path id="XMLID_36_" class="st0" d="M353.1,61.1h-11.8l9.3-43.9h11.8L353.1,61.1z M352.5,6.9c0-2.3,0.6-4,1.9-5.2
			c1.2-1.2,3-1.7,5.3-1.7c1.9,0,3.4,0.4,4.4,1.2c1,0.8,1.5,2,1.5,3.5c0,2.1-0.6,3.8-1.7,5.1c-1.2,1.3-2.9,1.9-5.3,1.9
			C354.5,11.7,352.5,10.1,352.5,6.9z"/>
	</g>
	<path id="XMLID_15_" class="st0" d="M294.1,63.6C281,63.6,270.3,53,270.3,40c0-13,10.7-23.6,23.8-23.6c13.2,0,23.9,10.6,23.9,23.6
		C318,53,307.3,63.6,294.1,63.6z M302.4,57.5c-3.3-1.7-5.6-4.4-7.8-7.2c-0.5-0.6-0.9-0.8-1.7-0.6c-3.9,1-7.8,1.6-11.9,1
		c-1.3-0.2-2.6-0.6-3.8-1C282.1,58.6,293.8,61.9,302.4,57.5z M310.6,29.6c-5-8.5-16.2-11-23.6-7.6c3.1,1.8,5.4,4.4,7.5,7.2
		c0.4,0.6,0.8,0.7,1.5,0.5c3.5-0.8,7-1.4,10.7-0.9C308,28.9,309.3,29.3,310.6,29.6z M285.6,36.1c-3,1.7-6,3.6-7.9,6.7
		c-1.6,2.5-0.9,4.4,1.9,5.3c4.3,1.3,8.5,0.5,12.8-0.5C290,43.7,287.8,40,285.6,36.1z M303.4,43.1c2.6-1.5,5.1-3.2,7-5.8
		c2-2.9,1.3-5.1-2.1-5.8c-2.1-0.5-4.4-0.5-6.6-0.4c-1.7,0-3.3,0.5-5,0.7C299,35.7,301.2,39.3,303.4,43.1z M287.8,34.9
		c2,4.2,4.2,7.9,6.8,11.5c0.1,0.2,0.5,0.4,0.7,0.3c2-0.7,3.9-1.5,6.1-2.4c-2.5-4.1-4.8-8-7.1-11.9C292,33.3,290,34.1,287.8,34.9z
		 M282.3,24.6c-5.1,2.6-9.6,13.7-7.5,18.3c2.2-4.2,6-6.7,9.8-9C283.5,30.8,282.3,27.9,282.3,24.6z M307.1,54.6
		c5-4.1,8.4-13.6,6.2-17.6c-2,3.9-5.5,6.2-8.8,8.2C305.4,48.4,306.2,51.5,307.1,54.6z M284.8,23.7c-0.4,3.5,0.9,6.3,2,9.1
		c2-0.8,3.8-1.5,5.8-2.3C290.4,27.8,288.3,25.1,284.8,23.7z M304.2,55.6c0.4-3.5-0.9-6.3-2-9.2c-2,0.8-3.8,1.6-5.8,2.4
		C298.7,51.4,300.7,54.2,304.2,55.6z"/>
</g>
</svg>
